<?xml version="1.0" encoding="iso-8859-1"?>
<!-- Generator: Adobe Illustrator 19.0.0, SVG Export Plug-In . SVG Version: 6.00 Build 0)  -->
<svg version="1.1" id="Capa_1" xmlns="http://www.w3.org/2000/svg" xmlns:xlink="http://www.w3.org/1999/xlink" x="0px" y="0px"
	 viewBox="0 0 512 512" style="enable-background:new 0 0 512 512;" xml:space="preserve">
<g>
	<g>
		<path d="M482.207,483.1l-57.69-81.724c30.396-8.424,53.059-35.515,54.59-68.539l0.673-14.502
			c2.328-32.498-4.401-64.944-19.467-93.834l-5.284-10.134c-0.006-0.011-0.011-0.022-0.016-0.033L368.621,48.651
			c0-0.001-0.001-0.001-0.001-0.002l-7.717-14.799C350.016,12.971,328.624,0,305.076,0h-98.15c-23.548,0-44.939,12.971-55.827,33.85
			l-7.717,14.799c0,0.001-0.001,0.001-0.001,0.002L56.987,214.333c-0.006,0.011-0.011,0.022-0.016,0.033L51.686,224.5
			c-15.065,28.891-21.795,61.336-19.467,93.834l0.673,14.502c1.531,33.023,24.194,60.115,54.59,68.539l-57.69,81.724
			c-3.965,5.617-4.463,12.898-1.3,19.002S37.893,512,44.768,512h62.946c6.987,0,13.269-3.882,16.395-10.132l5.562-11.124h252.66
			l5.562,11.124c3.126,6.25,9.407,10.131,16.395,10.131h62.946c6.875,0,13.111-3.792,16.274-9.897
			C486.671,495.997,486.173,488.716,482.207,483.1z M168.833,43.097C176.261,28.85,190.857,20,206.925,20h98.15
			c16.067,0,30.664,8.85,38.093,23.097l3.028,5.806c-57.153,27.272-123.238,27.272-180.391,0L168.833,43.097z M74.701,223.621
			L156.54,66.67c62.971,30.29,135.949,30.29,198.92,0l81.84,156.951c6.172,11.842,11.126,24.343,14.776,37.272l-2.102,0.608
			c-126.898,36.724-261.05,36.724-387.95,0l-2.101-0.608C63.574,247.964,68.529,235.463,74.701,223.621z M420.794,313.297
			c0,9.22-7.501,16.721-16.722,16.721c-9.22,0-16.721-7.501-16.721-16.721c0-9.22,7.501-16.721,16.721-16.721
			C413.293,296.576,420.794,304.077,420.794,313.297z M124.649,313.297c0,9.22-7.501,16.721-16.721,16.721
			c-9.221,0-16.722-7.501-16.722-16.721c0-9.22,7.501-16.721,16.722-16.721C117.149,296.576,124.649,304.077,124.649,313.297z
			 M52.87,331.911l-0.679-14.632c-0.004-0.086-0.009-0.173-0.016-0.259c-0.901-12.439-0.295-24.869,1.748-37.042l2.541,0.735
			c8.411,2.434,16.855,4.705,25.323,6.826c-6.538,6.633-10.581,15.731-10.581,25.758c0,20.248,16.474,36.721,36.722,36.721
			c20.248,0,36.721-16.473,36.721-36.721c0-4.717-0.904-9.225-2.531-13.372c37.732,6.075,75.803,9.12,113.882,9.12
			c38.07,0,76.146-3.046,113.883-9.122c-1.628,4.147-2.532,8.656-2.532,13.374c0,20.248,16.473,36.721,36.721,36.721
			c20.248,0,36.722-16.473,36.722-36.721c0-10.027-4.044-19.125-10.582-25.759c8.469-2.12,16.912-4.391,25.323-6.825l2.542-0.736
			c2.043,12.173,2.649,24.603,1.748,37.042c-0.007,0.086-0.012,0.172-0.016,0.259l-0.679,14.632
			c-1.357,29.272-25.376,52.202-54.68,52.202h-296.9C78.247,384.112,54.229,361.183,52.87,331.911z M345.574,417.235H166.428
			l6.562-13.123h166.022L345.574,417.235z M106.682,492h-58.69l61.724-87.438h40.688L106.682,492z M139.67,470.745l16.756-33.509
			h199.148l16.756,33.509H139.67z M405.321,492l-43.723-87.438h40.688L464.01,492H405.321z"/>
	</g>
</g>
<g>
	<g>
		<path d="M334.919,336.238c-1.245-5.381-6.612-8.733-11.997-7.488c-43.779,10.132-90.063,10.132-133.842,0
			c-5.379-1.242-10.752,2.107-11.997,7.488c-1.245,5.381,2.107,10.752,7.487,11.997c23.365,5.407,47.398,8.11,71.431,8.11
			s48.065-2.704,71.431-8.11C332.812,346.99,336.164,341.618,334.919,336.238z"/>
	</g>
</g>
<g>
	<g>
		<path d="M170.451,110.618c-4.955-2.442-10.95-0.402-13.39,4.552l-30.82,62.569c-2.44,4.954-0.402,10.949,4.552,13.389
			c1.421,0.7,2.928,1.032,4.411,1.032c3.689,0,7.238-2.05,8.979-5.583l30.82-62.569
			C177.443,119.053,175.404,113.059,170.451,110.618z"/>
	</g>
</g>
<g>
	<g>
		<path d="M124.798,221.23c-0.12-0.64-0.32-1.26-0.57-1.87c-0.25-0.6-0.55-1.18-0.92-1.72c-0.359-0.55-0.779-1.06-1.24-1.52
			c-2.319-2.33-5.77-3.39-9.02-2.74c-0.64,0.13-1.27,0.32-1.87,0.57c-0.61,0.25-1.189,0.56-1.729,0.92
			c-0.551,0.37-1.061,0.78-1.521,1.25c-0.46,0.46-0.88,0.97-1.24,1.52c-0.359,0.54-0.67,1.12-0.92,1.72
			c-0.25,0.61-0.45,1.23-0.569,1.87c-0.131,0.65-0.2,1.3-0.2,1.96c0,2.63,1.069,5.21,2.93,7.07c0.461,0.46,0.97,0.88,1.521,1.24
			c0.54,0.36,1.119,0.67,1.729,0.92c0.601,0.25,1.23,0.44,1.87,0.57s1.3,0.2,1.95,0.2c0.649,0,1.31-0.07,1.95-0.2
			c0.64-0.13,1.27-0.32,1.869-0.57c0.61-0.25,1.19-0.56,1.73-0.92c0.55-0.36,1.06-0.78,1.52-1.24c0.461-0.46,0.881-0.97,1.24-1.52
			c0.36-0.54,0.67-1.13,0.92-1.73c0.25-0.6,0.45-1.23,0.57-1.87c0.13-0.64,0.2-1.3,0.2-1.95
			C124.998,222.53,124.928,221.88,124.798,221.23z"/>
	</g>
</g>
<g>
</g>
<g>
</g>
<g>
</g>
<g>
</g>
<g>
</g>
<g>
</g>
<g>
</g>
<g>
</g>
<g>
</g>
<g>
</g>
<g>
</g>
<g>
</g>
<g>
</g>
<g>
</g>
<g>
</g>
</svg>
